<svg width="101" height="32" viewBox="0 0 101 32" fill="none" xmlns="http://www.w3.org/2000/svg">
<path d="M5.93351 8.5294H0L2.07347 0.050293H10.7428L9.31231 5.90055C8.93486 7.44285 7.53898 8.5294 5.93351 8.5294Z" fill="#7B797A"/>
<path d="M10.8537 28.047H4.92017L11.7052 0H20.3746L14.2325 25.4182C13.855 26.9605 12.4591 28.047 10.8537 28.047Z" fill="#7B797A"/>
<path d="M20.2769 28.047H14.3434L21.1285 0H29.7978L23.6557 25.4182C23.2782 26.9605 21.8824 28.047 20.2769 28.047Z" fill="#E01624"/>
<path d="M34.7688 8.5294H28.8353L30.9087 0.050293H39.577L38.1466 5.90055C37.7691 7.44285 36.3732 8.5294 34.7688 8.5294Z" fill="#E01624"/>
<path d="M33.1285 28.1999C31.1732 28.1999 29.6759 27.5729 28.6367 26.8239L29.6936 24.2982C30.5919 25.0298 31.8602 25.6568 33.2694 25.6568C34.3087 25.6568 34.9428 25.2388 34.9428 24.4898C34.9428 23.7408 34.3615 23.4621 33.058 22.8873C31.1556 22.0686 29.9754 21.2151 29.9754 19.3513C29.9754 16.7908 31.9659 15.4844 34.6962 15.4844C36.352 15.4844 37.814 15.9895 38.6243 16.4598L37.497 18.8287C36.7043 18.3062 35.5593 17.9926 34.6786 17.9926C33.6217 17.9926 33.0404 18.4281 33.0404 19.1074C33.0404 19.8739 33.6745 20.2048 35.1366 20.7796C36.6515 21.3893 38.0254 22.2079 38.0254 24.0892C38.0254 26.58 36.4577 28.1999 33.1285 28.1999Z" fill="#E01624"/>
<path d="M39.1575 28.0257L41.3769 15.6586H49.2156L48.7576 18.2017H43.8783L43.4379 20.6054H48.1763L47.7359 23.0789H42.9975L42.5748 25.4826H47.595L47.137 28.0257H39.1575Z" fill="#E01624"/>
<path d="M60.2615 19.0029C60.2615 20.8145 59.2222 22.3299 57.2846 23.0092L59.5569 28.0257H56.2453L54.4838 23.3924H53.1627L52.3348 28.0257H49.3755L51.595 15.6586H56.3686C58.958 15.6586 60.2615 17.0172 60.2615 19.0029ZM54.1315 18.0275L53.5679 21.128H55.118C56.351 21.128 57.1437 20.5009 57.1437 19.3687C57.1437 18.4281 56.5448 18.0275 55.6112 18.0275H54.1315Z" fill="#E01624"/>
<path d="M69.9342 15.6586H73.2282L66.6578 28.0257H63.3638L61.162 15.6586H64.227L65.5128 24.6465L69.9342 15.6586Z" fill="#E01624"/>
<path d="M72.3231 28.0257L74.5426 15.6586H77.5019L75.2824 28.0257H72.3231Z" fill="#E01624"/>
<path d="M84.4305 28.1999C80.7489 28.1999 78.2828 25.9878 78.2828 22.3299C78.2828 18.0623 81.3831 15.4844 85.3641 15.4844C87.3722 15.4844 88.7461 16.0766 89.6797 16.8256L88.4643 19.4558C87.6012 18.7242 86.5971 18.2191 85.3288 18.2191C82.9684 18.2191 81.4007 19.9261 81.4007 22.1034C81.4007 24.0892 82.6866 25.4652 84.7475 25.4652C86.0863 25.4652 87.2312 24.8904 88.1648 24.333L88.8342 26.911C87.6716 27.6425 86.2272 28.1999 84.4305 28.1999Z" fill="#E01624"/>
<path d="M90.024 28.0257L92.2435 15.6586H100.082L99.6242 18.2017H94.7448L94.3045 20.6054H99.0429L98.6025 23.0789H93.8641L93.4413 25.4826H98.4616L98.0036 28.0257H90.024Z" fill="#E01624"/>
</svg>
