<svg width="1600" height="1200" viewBox="0 0 1600 1200" fill="none" xmlns="http://www.w3.org/2000/svg">
  <rect width="1600" height="1200" fill="#07111F"/>
  <rect width="1600" height="1200" fill="url(#paint0_linear)"/>
  <circle cx="1280" cy="240" r="320" fill="#38BDF8" fill-opacity="0.18"/>
  <circle cx="1360" cy="980" r="280" fill="#0EA5E9" fill-opacity="0.14"/>
  <path d="M160 184H1440" stroke="white" stroke-opacity="0.12" stroke-width="2"/>
  <path d="M160 312H1440" stroke="white" stroke-opacity="0.08" stroke-width="2"/>
  <path d="M160 856H1440" stroke="white" stroke-opacity="0.08" stroke-width="2"/>
  <path d="M160 984H1440" stroke="white" stroke-opacity="0.12" stroke-width="2"/>
  <path d="M320 120V1080" stroke="white" stroke-opacity="0.08" stroke-width="2"/>
  <path d="M800 120V1080" stroke="white" stroke-opacity="0.08" stroke-width="2"/>
  <path d="M1280 120V1080" stroke="white" stroke-opacity="0.08" stroke-width="2"/>
  <rect x="160" y="160" width="1280" height="880" rx="40" stroke="white" stroke-opacity="0.16" stroke-width="2"/>
  <rect x="224" y="224" width="1152" height="752" rx="28" fill="white" fill-opacity="0.04"/>
  <text x="240" y="398" fill="white" fill-opacity="0.76" font-family="Ubuntu, Arial, sans-serif" font-size="30" font-weight="700" letter-spacing="8">UNTI DIGITAL</text>
  <text x="240" y="540" fill="white" font-family="Ubuntu, Arial, sans-serif" font-size="108" font-weight="700" letter-spacing="-2">SAUDE</text>
  <text x="240" y="626" fill="white" fill-opacity="0.72" font-family="Ubuntu, Arial, sans-serif" font-size="34" font-weight="400">Arquitetura premium para autoridade, confianca e captacao.</text>
  <rect x="240" y="728" width="196" height="56" rx="28" fill="white" fill-opacity="0.1"/>
  <text x="272" y="765" fill="white" font-family="Ubuntu, Arial, sans-serif" font-size="22" font-weight="500">PORTFOLIO</text>
  <defs>
    <linearGradient id="paint0_linear" x1="120" y1="80" x2="1434" y2="1160" gradientUnits="userSpaceOnUse">
      <stop stop-color="#0B1730"/>
      <stop offset="0.52" stop-color="#123456"/>
      <stop offset="1" stop-color="#07111F"/>
    </linearGradient>
  </defs>
</svg>
