<svg version="1.2" xmlns="http://www.w3.org/2000/svg" viewBox="0 0 1410 1058" width="1410" height="1058"><style>.a{fill:#396cff}.b{fill:#53535c}.c{fill:#fff}</style><path class="a" d="m98.1 892.7q-19.4 0-33.4-5.3-14.1-5.6-23.4-15.1-9-9.8-13.5-23.1-4.2-13.5-4.2-29.7v-114.4h41.3v110.9q0 11.2 2.4 19.1 2.7 7.7 6.9 12.8 4.5 4.8 10.6 6.9 6.4 2.1 13.8 2.1 15.1 0 24.4-9.3 9.6-9.3 9.6-31.6v-110.9h41.4v114.4q0 16.2-4.6 29.7-4.5 13.5-13.7 23.4-9.3 9.5-23.7 14.8-14.3 5.3-33.9 5.3zm113.5-3.7v-134.8q10-2.9 26-5.3 15.9-2.6 33.4-2.6 17.8 0 29.4 4.7 12 4.6 18.9 13 6.9 8.5 9.8 20.2 2.9 11.7 2.9 26v78.8h-39.5v-74q0-19.1-5.1-27.1-5-7.9-18.8-7.9-4.3 0-9 0.5-4.8 0.3-8.5 0.8v107.7zm154.7-57v-117.3l39.5-6.4v41.2h47.5v32.9h-47.5v49q0 12.5 4.2 19.9 4.5 7.5 17.8 7.5 6.4 0 13-1.1 6.9-1.3 12.5-3.5l5.5 30.8q-7.1 2.9-15.9 5.1-8.7 2.1-21.5 2.1-16.1 0-26.8-4.3-10.6-4.5-16.9-12.2-6.4-7.9-9.1-19.1-2.3-11.1-2.3-24.6zm158.8-82.5v139.5h-39.5v-139.5zm3.7-40.4q0 10.9-7.2 17.3-6.9 6.1-16.4 6.1-9.6 0-16.7-6.1-6.9-6.4-6.9-17.3 0-10.8 6.9-17 7.1-6.3 16.7-6.3 9.5 0 16.4 6.3 7.2 6.2 7.2 17zm76.8 30v116.2q2.9 0.3 6.6 0.5 4 0 9.3 0 31 0 45.9-15.6 15.1-15.7 15.1-43.3 0-28.9-14.3-43.7-14.3-14.9-45.4-14.9-4.2 0-8.7 0.3-4.5 0-8.5 0.5zm119.6 57.8q0 23.9-7.4 41.7-7.4 17.8-21.2 29.4-13.6 11.7-33.2 17.6-19.6 5.8-44 5.8-11.2 0-26-0.8-14.9-1.1-29.2-4v-179.1q14.3-2.6 29.7-3.4 15.7-1.1 26.8-1.1 23.6 0 42.7 5.3 19.4 5.3 33.2 16.7 13.8 11.5 21.2 29.2 7.4 17.8 7.4 42.7zm71.9-47.4v139.5h-39.5v-139.5zm3.7-40.4q0 10.9-7.2 17.3-6.9 6.1-16.4 6.1-9.6 0-16.7-6.1-6.9-6.4-6.9-17.3 0-10.8 6.9-17 7.1-6.3 16.7-6.3 9.5 0 16.4 6.3 7.2 6.2 7.2 17zm66.4 105.6q0 33.2 26.8 33.2 6.1 0 11.4-1.6 5.3-1.6 9-3.7v-63.2q-2.9-0.5-6.9-0.8-3.9-0.5-9.2-0.5-15.7 0-23.4 10.4-7.7 10.3-7.7 26.2zm86.8-60.5v117.3q0 34.2-17.5 50.9-17.3 16.5-53.6 16.5-12.8 0-25.5-2.1-12.7-2.4-23.6-6.1l6.9-33.2q9.3 3.7 19.4 5.8 10.3 2.1 23.3 2.1 17 0 23.9-7.4 7.1-7.4 7.1-19.1v-5q-6.3 2.9-13.2 4.5-6.6 1.3-14.6 1.3-28.9 0-44.3-17-15.4-17.2-15.4-48 0-15.4 4.8-27.8 4.8-12.8 13.8-21.8 9.3-9 22.5-13.8 13.3-5 30-5 7.2 0 14.6 0.8 7.7 0.5 15.1 1.6 7.4 1 14.1 2.6 6.9 1.3 12.2 2.9zm77.1-4.7v139.5h-39.6v-139.5zm3.8-40.4q0 10.9-7.2 17.3-6.9 6.1-16.4 6.1-9.6 0-16.8-6.1-6.9-6.4-6.9-17.3 0-10.8 6.9-17 7.2-6.3 16.8-6.3 9.5 0 16.4 6.3 7.2 6.2 7.2 17zm32.4 122.9v-117.3l39.5-6.4v41.2h47.5v32.9h-47.5v49q0 12.5 4.3 19.9 4.5 7.5 17.7 7.5 6.4 0 13-1.1 6.9-1.3 12.5-3.5l5.6 30.8q-7.2 2.9-15.9 5.1-8.8 2.1-21.5 2.1-16.2 0-26.8-4.3-10.6-4.5-17-12.2-6.4-7.9-9-19.1-2.4-11.1-2.4-24.6zm166.6 29.4q5.9 0 11.2-0.3 5.3-0.2 8.5-0.8v-29.9q-2.4-0.6-7.2-1.1-4.8-0.5-8.7-0.5-5.6 0-10.7 0.8-4.7 0.5-8.4 2.4-3.8 1.8-5.9 5-2.1 3.2-2.1 8 0 9.2 6.1 13 6.4 3.4 17.2 3.4zm-3.1-115.7q17.5 0 29.1 4 11.7 4 18.6 11.4 7.2 7.5 10.1 18.1 2.9 10.6 2.9 23.6v82.2q-8.5 1.9-23.6 4.5-15.1 2.4-36.6 2.4-13.5 0-24.7-2.4-10.9-2.4-18.8-7.7-8-5.5-12.2-14.3-4.3-8.7-4.3-21.5 0-12.2 4.8-20.7 5.1-8.5 13.3-13.5 8.2-5 18.8-7.2 10.6-2.4 22-2.4 7.7 0 13.6 0.8 6.1 0.6 9.8 1.6v-3.7q0-10.1-6.1-16.2-6.1-6.1-21.3-6.1-10 0-19.8 1.6-9.9 1.4-17 4l-5.1-31.8q3.5-1.1 8.5-2.2 5.3-1.3 11.4-2.1 6.1-1 12.8-1.6 6.9-0.8 13.8-0.8zm158.1 113.3l-5.6 32.7q-17.2-0.3-28.1-3.8-10.6-3.4-17-9.5-6.1-6.4-8.5-15.1-2.1-9.1-2.1-20.2v-153.6l39.5-6.4v152q0 5.4 0.8 9.6 0.8 4.2 3 7.2 2.3 2.9 6.6 4.7 4.2 1.9 11.4 2.4z"/><path class="b" d="m41 1018.7q4.6 0 6.7-1.2 2.2-1.2 2.2-3.9 0-2.7-2.1-4.3-2.2-1.6-7.1-3.5-2.4-1-4.6-2-2.2-1-3.8-2.4-1.6-1.3-2.5-3.2-1-1.9-1-4.7 0-5.5 4.1-8.7 4.1-3.3 11.1-3.3 1.7 0 3.5 0.3 1.7 0.1 3.2 0.4 1.6 0.3 2.7 0.6 1.2 0.3 1.8 0.6l-1.4 6.3q-1.1-0.6-3.7-1.2-2.5-0.8-6.1-0.8-3.1 0-5.5 1.3-2.3 1.2-2.3 3.8 0 1.4 0.5 2.4 0.6 1.1 1.6 1.9 1.1 0.8 2.7 1.6 1.6 0.7 3.8 1.5 3 1.1 5.3 2.2 2.3 1 3.9 2.5 1.7 1.4 2.6 3.5 0.8 2 0.8 4.9 0 5.8-4.3 8.7-4.2 3-12.1 3-5.5 0-8.6-0.9-3.1-1-4.2-1.5l1.3-6.3q1.3 0.4 4.1 1.4 2.8 1 7.4 1zm62-15.4q0 4.9-1.5 8.9-1.4 4-4 6.9-2.6 2.8-6.2 4.4-3.6 1.5-7.8 1.5-4.2 0-7.8-1.5-3.6-1.6-6.2-4.4-2.6-2.9-4-6.9-1.4-4-1.4-8.9 0-4.9 1.4-8.9 1.4-4 4-6.9 2.6-2.9 6.2-4.4 3.6-1.6 7.8-1.6 4.2 0 7.8 1.6 3.6 1.5 6.2 4.4 2.6 2.9 4 6.9 1.5 4 1.5 8.9zm-7.8 0q0-7-3.2-11.1-3.1-4.1-8.5-4.1-5.4 0-8.6 4.1-3.1 4.1-3.1 11.1 0 7 3.1 11.1 3.2 4.1 8.6 4.1 5.4 0 8.5-4.1 3.2-4.1 3.2-11.1zm31.6 15.3l-1 6.2q-6.8-0.2-9.7-3-2.9-2.7-2.9-8.6v-49.8l7.4-1.2v49.8q0 1.8 0.3 3 0.4 1.2 1.1 1.9 0.7 0.7 1.9 1.1 1.2 0.3 2.9 0.6zm41.6-36v40.2q-2.6 0.6-6.8 1.4-4.1 0.7-9.6 0.7-4.8 0-8.1-1.4-3.3-1.4-5.3-4-1.9-2.5-2.8-5.9-0.9-3.5-0.9-7.8v-23.2h7.4v21.6q0 7.6 2.4 10.9 2.4 3.2 8 3.2 1.2 0 2.5 0 1.3-0.1 2.4-0.2 1.1-0.2 2-0.2 1-0.2 1.4-0.4v-34.9zm31.9 42.4l-0.8 1.9q2.3 1.2 3.3 2.5 1 1.3 1 3.8 0 0.9-0.4 2-0.4 1-1.3 1.9-1 0.8-2.6 1.4-1.6 0.6-3.9 0.6-2 0-3.8-0.4-1.7-0.3-2.7-0.7l0.9-4.5q0.9 0.3 2 0.5 1.1 0.3 2.4 0.3 2.9 0 2.9-1.9 0-0.8-0.9-1.4-0.9-0.6-2.4-1.3l-0.6-0.2q0.3-1 0.9-2.3 0.5-1.4 1.2-2.6-4.1-0.5-7.2-2.3-3-1.8-5.1-4.6-2.1-2.8-3.1-6.4-1-3.6-1-7.9 0-4.8 1.3-8.8 1.4-4 4-6.9 2.5-2.9 6.2-4.5 3.8-1.7 8.3-1.7 2.8 0 5.6 0.5 2.8 0.5 5.3 1.5l-1.7 6.3q-1.6-0.8-3.9-1.3-2.1-0.4-4.6-0.4-6.2 0-9.5 3.9-3.3 3.9-3.3 11.4 0 3.3 0.7 6.1 0.8 2.8 2.4 4.8 1.7 2 4.2 3.1 2.6 1 6.2 1 3 0 5.4-0.5 2.4-0.6 3.7-1.2l1.1 6.2q-0.7 0.3-1.8 0.7-1 0.3-2.4 0.6-1.3 0.3-2.9 0.5-1.6 0.2-3.1 0.3zm53.6-21.7q0 4.9-1.4 8.9-1.4 4-4.1 6.9-2.5 2.8-6.1 4.4-3.6 1.5-7.8 1.5-4.2 0-7.8-1.5-3.6-1.6-6.2-4.4-2.6-2.9-4-6.9-1.4-4-1.4-8.9 0-4.9 1.4-8.9 1.4-4 4-6.9 2.6-2.9 6.2-4.4 3.6-1.6 7.8-1.6 4.2 0 7.8 1.6 3.6 1.5 6.1 4.4 2.7 2.9 4.1 6.9 1.4 4 1.4 8.9zm-7.7 0q0-7-3.2-11.1-3.1-4.1-8.5-4.1-5.4 0-8.6 4.1-3.1 4.1-3.1 11.1 0 7 3.1 11.1 3.2 4.1 8.6 4.1 5.4 0 8.5-4.1 3.2-4.1 3.2-11.1zm-2.4-37.9l3.8 1.9q-0.4 1-1.1 2.3-0.6 1.2-1.6 2.4-1.1 1-2.5 1.8-1.4 0.7-3 0.7-1.6 0-3.1-0.5-1.3-0.6-2.6-1.2-1.4-0.7-2.3-1-1-0.3-1.8-0.3-1.4 0-2.6 1.1-1.1 1.1-1.7 2.4l-3.9-1.9q0.3-1 1.1-2.3 0.7-1.2 1.7-2.3 1.1-1.1 2.4-1.8 1.4-0.8 3.1-0.8 1.6 0 3 0.6 1.4 0.5 2.7 1.2 1.3 0.6 2.3 0.9 0.9 0.3 1.8 0.3 1.4 0 2.5-1.1 1.2-1.1 1.8-2.4zm18.3 38q0-5.5 1.5-9.6 1.6-4.1 4.3-6.9 2.6-2.7 6-4 3.5-1.4 7-1.4 8.4 0 12.9 5.3 4.4 5.2 4.4 15.8 0 0.5 0 1.3 0 0.7 0 1.4h-28.4q0.5 6.4 3.7 9.8 3.3 3.3 10.2 3.3 3.9 0 6.6-0.6 2.7-0.7 4-1.4l1.1 6.2q-1.4 0.8-4.8 1.6-3.4 0.8-7.7 0.8-5.4 0-9.4-1.6-3.9-1.7-6.4-4.6-2.6-2.8-3.9-6.8-1.1-3.9-1.1-8.6zm7.8-4.1h20.6q0.1-5-2.5-8.2-2.6-3.3-7.1-3.3-2.6 0-4.6 1.1-1.9 0.9-3.2 2.5-1.4 1.6-2.2 3.7-0.7 2-1 4.2zm48.1 19.4q4.5 0 6.7-1.2 2.2-1.2 2.2-3.9 0-2.7-2.1-4.3-2.2-1.6-7.1-3.5-2.4-1-4.6-2-2.2-1-3.8-2.4-1.6-1.3-2.5-3.2-1-1.9-1-4.7 0-5.5 4.1-8.7 4-3.3 11.1-3.3 1.7 0 3.5 0.3 1.7 0.1 3.2 0.4 1.5 0.3 2.7 0.6 1.2 0.3 1.8 0.6l-1.4 6.3q-1.2-0.6-3.7-1.2-2.6-0.8-6.1-0.8-3.2 0-5.5 1.3-2.3 1.2-2.3 3.8 0 1.4 0.5 2.4 0.6 1.1 1.6 1.9 1.1 0.8 2.7 1.6 1.6 0.7 3.8 1.5 3 1.1 5.3 2.2 2.3 1 3.9 2.5 1.7 1.4 2.5 3.5 0.9 2 0.9 4.9 0 5.8-4.3 8.7-4.2 3-12.1 3-5.5 0-8.6-0.9-3.1-1-4.2-1.5l1.3-6.3q1.3 0.4 4.1 1.4 2.8 1 7.4 1zm42.1-15.3q0-5.5 1.5-9.6 1.6-4.1 4.3-6.9 2.6-2.7 6-4 3.5-1.4 7-1.4 8.4 0 12.9 5.3 4.4 5.2 4.4 15.8 0 0.5 0 1.3 0 0.7 0 1.4h-28.4q0.5 6.4 3.7 9.8 3.3 3.3 10.2 3.3 3.9 0 6.6-0.6 2.7-0.7 4-1.4l1.1 6.2q-1.4 0.8-4.8 1.6-3.4 0.8-7.7 0.8-5.4 0-9.4-1.6-3.9-1.7-6.4-4.6-2.6-2.8-3.9-6.8-1.1-3.9-1.1-8.6zm7.8-4.1h20.6q0.1-5-2.5-8.2-2.6-3.3-7.1-3.3-2.6 0-4.6 1.1-1.9 0.9-3.2 2.5-1.4 1.6-2.2 3.7-0.7 2-1 4.2zm39.5 24.7v-40.2q2.5-0.7 6.7-1.4 4.2-0.7 9.7-0.7 4 0 6.7 1.1 2.7 1 4.5 3.1 0.6-0.4 1.8-1.1 1.2-0.7 2.9-1.4 1.8-0.7 3.9-1.2 2.2-0.5 4.6-0.5 4.8 0 7.9 1.4 3 1.4 4.7 3.9 1.7 2.6 2.3 6.1 0.6 3.5 0.6 7.6v23.3h-7.4v-21.7q0-3.6-0.4-6.3-0.3-2.6-1.4-4.4-0.9-1.7-2.7-2.5-1.6-0.9-4.4-0.9-3.7 0-6.2 1.1-2.4 0.9-3.2 1.7 0.6 2.1 0.9 4.5 0.3 2.5 0.3 5.2v23.3h-7.4v-21.7q0-3.6-0.4-6.3-0.4-2.6-1.4-4.4-1-1.7-2.7-2.5-1.7-0.9-4.3-0.9-1.1 0-2.4 0.1-1.3 0.1-2.5 0.2-1.1 0.1-2 0.3-1 0.1-1.3 0.2v35zm93.9-54.3v12.9h15.7v6.2h-15.7v19.1q0 3.1 0.5 5.2 0.5 2 1.4 3.2 1 1.1 2.4 1.6 1.4 0.4 3.4 0.4 3.3 0 5.3-0.7 2.1-0.8 2.9-1.1l1.4 6.1q-1.1 0.6-3.9 1.5-2.8 0.8-6.4 0.8-4.2 0-7-1.1-2.7-1.1-4.4-3.2-1.6-2.2-2.4-5.3-0.6-3.2-0.6-7.3v-37zm21.8 33.6q0-5.5 1.5-9.5 1.6-4.2 4.3-6.9 2.6-2.7 6-4 3.5-1.4 7-1.4 8.4 0 12.9 5.3 4.4 5.1 4.4 15.8 0 0.5 0 1.3 0 0.7 0 1.3h-28.4q0.5 6.5 3.7 9.8 3.3 3.4 10.2 3.4 3.9 0 6.6-0.6 2.7-0.8 4-1.4l1.1 6.2q-1.4 0.7-4.8 1.5-3.4 0.8-7.7 0.8-5.4 0-9.4-1.6-3.9-1.6-6.4-4.5-2.6-2.9-3.9-6.8-1.1-4-1.1-8.7zm7.8-4h20.6q0.1-5.1-2.5-8.2-2.6-3.3-7.1-3.3-2.6 0-4.6 1-1.9 1-3.2 2.6-1.4 1.6-2.2 3.6-0.7 2.1-1 4.3zm57.5 25.6q-5 0-8.9-1.6-3.7-1.6-6.3-4.4-2.6-2.9-3.9-6.8-1.2-4-1.2-8.8 0-4.7 1.3-8.7 1.4-4 4-6.9 2.5-2.9 6.2-4.5 3.8-1.7 8.3-1.7 2.8 0 5.6 0.5 2.8 0.5 5.3 1.5l-1.7 6.3q-1.6-0.8-3.9-1.3-2.1-0.5-4.6-0.5-6.2 0-9.5 3.9-3.3 3.9-3.3 11.4 0 3.4 0.7 6.2 0.8 2.8 2.4 4.8 1.7 1.9 4.2 3.1 2.6 1 6.2 1 3 0 5.4-0.6 2.4-0.5 3.7-1.2l1.1 6.3q-0.7 0.4-1.9 0.8-1.2 0.3-2.7 0.6-1.5 0.2-3.3 0.5-1.6 0.1-3.2 0.1zm19-0.9v-40.3q2.5-0.6 6.7-1.3 4.3-0.7 9.8-0.7 4.9 0 8.2 1.4 3.2 1.3 5.1 3.9 2 2.5 2.8 6 0.8 3.5 0.8 7.7v23.3h-7.4v-21.7q0-3.8-0.5-6.5-0.5-2.7-1.7-4.4-1.2-1.7-3.2-2.4-2-0.8-4.9-0.8-1.2 0-2.5 0.1-1.3 0.1-2.5 0.2-1.1 0.1-2 0.3-0.9 0.1-1.3 0.2v35zm81.6-20.7q0 4.9-1.5 8.9-1.4 4-4 6.8-2.6 2.9-6.2 4.5-3.6 1.5-7.8 1.5-4.2 0-7.8-1.5-3.6-1.6-6.2-4.5-2.6-2.8-4-6.8-1.4-4-1.4-8.9 0-4.9 1.4-8.9 1.4-4.1 4-6.9 2.6-2.9 6.2-4.4 3.6-1.6 7.8-1.6 4.2 0 7.8 1.6 3.6 1.5 6.2 4.4 2.6 2.8 4 6.9 1.5 4 1.5 8.9zm-7.8 0q0-7.1-3.2-11.1-3.1-4.2-8.5-4.2-5.4 0-8.6 4.2-3.1 4-3.1 11.1 0 7 3.1 11.1 3.2 4.1 8.6 4.1 5.4 0 8.5-4.1 3.2-4.1 3.2-11.1zm31.6 15.3l-1 6.2q-6.8-0.2-9.7-3-2.9-2.8-2.9-8.7v-49.7l7.4-1.3v49.8q0 1.9 0.3 3.1 0.4 1.2 1.1 1.9 0.7 0.7 1.9 1.1 1.2 0.3 2.9 0.6zm45.2-15.3q0 4.9-1.5 8.9-1.4 4-4 6.8-2.6 2.9-6.2 4.5-3.6 1.5-7.8 1.5-4.2 0-7.8-1.5-3.6-1.6-6.2-4.5-2.6-2.8-4-6.8-1.4-4-1.4-8.9 0-4.9 1.4-8.9 1.4-4.1 4-6.9 2.6-2.9 6.2-4.4 3.6-1.6 7.8-1.6 4.2 0 7.8 1.6 3.6 1.5 6.2 4.4 2.6 2.8 4 6.9 1.5 4 1.5 8.9zm-7.8 0q0-7.1-3.2-11.1-3.1-4.2-8.5-4.2-5.4 0-8.6 4.2-3.1 4-3.1 11.1 0 7 3.1 11.1 3.2 4.1 8.6 4.1 5.4 0 8.5-4.1 3.2-4.1 3.2-11.1zm44.2 18.3v-1.8q-1 0.7-3.8 1.7-2.7 1-6.4 1-3.7 0-7.1-1.2-3.2-1.2-5.7-3.7-2.5-2.6-3.9-6.3-1.4-3.7-1.4-8.9 0-4.6 1.3-8.3 1.4-3.8 3.9-6.5 2.7-2.8 6.4-4.3 3.7-1.6 8.4-1.6 5.2 0 9.1 0.8 3.9 0.7 6.5 1.3v37q0 9.6-5 13.9-4.9 4.3-14.9 4.3-3.9 0-7.4-0.7-3.5-0.6-6-1.5l1.3-6.4q2.3 0.8 5.4 1.5 3.3 0.7 6.8 0.7 6.6 0 9.5-2.6 3-2.7 3-8.4zm-0.1-8.3v-24.2q-1.1-0.3-3.1-0.6-1.8-0.3-5-0.3-6 0-9.2 3.9-3.2 3.9-3.2 10.4 0 3.5 0.9 6.1 0.9 2.5 2.4 4.2 1.6 1.7 3.6 2.5 2.1 0.8 4.3 0.8 2.9 0 5.4-0.8 2.4-0.9 3.9-2zm27.5-30.8v41.5h-7.4v-41.5zm-3.8-7.5q-2 0-3.4-1.2-1.4-1.4-1.4-3.6 0-2.2 1.4-3.5 1.4-1.4 3.4-1.4 2 0 3.4 1.4 1.4 1.3 1.4 3.5 0 2.2-1.4 3.6-1.4 1.2-3.4 1.2zm30.4 43.6q2.6 0 4.6 0 2.1-0.2 3.4-0.5v-12.4q-0.8-0.4-2.6-0.6-1.7-0.3-4.3-0.3-1.7 0-3.6 0.2-1.8 0.2-3.4 1-1.5 0.8-2.6 2.1-1 1.3-1 3.4 0 4 2.6 5.6 2.5 1.5 6.9 1.5zm-0.6-37.1q4.4 0 7.4 1.2 3.2 1.1 5 3.3 1.9 2 2.7 5 0.8 2.9 0.8 6.4v25.9q-1 0.1-2.7 0.4-1.7 0.3-3.8 0.5-2.2 0.3-4.7 0.5-2.5 0.2-5 0.2-3.5 0-6.4-0.8-3-0.7-5.1-2.2-2.2-1.6-3.4-4.1-1.2-2.6-1.2-6.2 0-3.4 1.4-5.9 1.4-2.4 3.8-4 2.4-1.5 5.6-2.2 3.2-0.7 6.7-0.7 1.1 0 2.3 0.2 1.2 0 2.2 0.3 1.1 0.1 1.9 0.3 0.8 0.1 1.1 0.2v-2q0-1.9-0.4-3.6-0.4-1.9-1.4-3.2-1-1.5-2.9-2.2-1.7-0.9-4.6-0.9-3.7 0-6.4 0.5-2.7 0.5-4.1 1.1l-0.9-6.2q1.5-0.6 4.8-1.2 3.3-0.6 7.3-0.6zm75.3 21.8q0-7.2-3.6-11.1-3.5-3.9-9.5-3.9-3.4 0-5.3 0.2-1.8 0.3-2.9 0.6v26.1q1.3 1.1 3.9 2.2 2.5 1 5.6 1 3.1 0 5.4-1.1 2.3-1.2 3.7-3.2 1.5-2.1 2.1-4.8 0.6-2.8 0.6-6zm7.8 0q0 4.7-1.3 8.7-1.2 4-3.6 6.9-2.4 2.8-5.9 4.4-3.4 1.6-7.9 1.6-3.6 0-6.4-0.9-2.7-1-4-1.9v16.6h-7.4v-54.9q2.6-0.6 6.5-1.3 4-0.8 9.2-0.8 4.7 0 8.6 1.5 3.8 1.5 6.5 4.3 2.7 2.8 4.1 6.8 1.6 4 1.6 9zm24.5 15.3q2.6 0 4.6 0 2.1-0.2 3.4-0.5v-12.4q-0.8-0.4-2.6-0.6-1.7-0.3-4.3-0.3-1.7 0-3.6 0.2-1.8 0.2-3.4 1-1.5 0.8-2.6 2.1-1 1.3-1 3.4 0 4 2.6 5.6 2.5 1.5 6.9 1.5zm-0.6-37.1q4.4 0 7.4 1.2 3.2 1.1 5 3.3 1.9 2 2.7 5 0.8 2.9 0.8 6.4v25.9q-1 0.1-2.7 0.4-1.7 0.3-3.8 0.5-2.2 0.3-4.7 0.5-2.5 0.2-5 0.2-3.5 0-6.4-0.8-3-0.7-5.1-2.2-2.2-1.6-3.4-4.1-1.2-2.6-1.2-6.2 0-3.4 1.4-5.9 1.4-2.4 3.8-4 2.4-1.5 5.6-2.2 3.2-0.7 6.7-0.7 1.1 0 2.3 0.2 1.2 0 2.2 0.3 1.1 0.1 1.9 0.3 0.8 0.1 1.1 0.2v-2q0-1.9-0.4-3.6-0.4-1.9-1.4-3.2-1-1.5-2.9-2.2-1.7-0.9-4.6-0.9-3.7 0-6.4 0.5-2.7 0.5-4.1 1.1l-0.9-6.2q1.5-0.6 4.8-1.2 3.3-0.6 7.3-0.6zm43.9 0.2q0.9 0 2.1 0.1 1.3 0.1 2.5 0.3 1.2 0.2 2.1 0.4 1.1 0.2 1.6 0.4l-1.3 6.4q-0.9-0.3-3-0.7-2-0.5-5.2-0.5-2 0-4.1 0.5-2 0.4-2.6 0.5v34.9h-7.4v-39.7q2.6-1 6.5-1.8 3.9-0.8 8.8-0.8zm29.7 36.9q2.6 0 4.6 0 2.1-0.2 3.4-0.5v-12.4q-0.8-0.4-2.6-0.6-1.7-0.3-4.3-0.3-1.7 0-3.6 0.2-1.8 0.2-3.4 1-1.5 0.8-2.6 2.1-1 1.3-1 3.4 0 4 2.6 5.6 2.5 1.5 6.9 1.5zm-0.6-37.1q4.4 0 7.4 1.2 3.2 1.1 5 3.3 1.9 2 2.7 5 0.8 2.9 0.8 6.4v25.9q-1 0.1-2.7 0.4-1.7 0.3-3.8 0.5-2.2 0.3-4.7 0.5-2.5 0.2-5 0.2-3.5 0-6.4-0.8-3-0.7-5.1-2.2-2.2-1.6-3.4-4.1-1.2-2.6-1.2-6.2 0-3.4 1.4-5.9 1.4-2.4 3.8-4 2.4-1.5 5.6-2.2 3.2-0.7 6.7-0.7 1.1 0 2.3 0.2 1.2 0 2.2 0.3 1.1 0.1 1.9 0.3 0.8 0.1 1.1 0.2v-2q0-1.9-0.4-3.6-0.4-1.9-1.4-3.2-1-1.5-2.9-2.2-1.7-0.9-4.6-0.9-3.7 0-6.4 0.5-2.7 0.5-4.1 1.1l-0.9-6.2q1.5-0.6 4.8-1.2 3.3-0.6 7.3-0.6zm46.6 42.5v-40.3q2.5-0.6 6.7-1.3 4.3-0.7 9.8-0.7 4.9 0 8.2 1.4 3.2 1.3 5.1 3.9 2 2.5 2.8 6 0.8 3.5 0.8 7.7v23.3h-7.4v-21.7q0-3.8-0.5-6.5-0.5-2.7-1.7-4.4-1.2-1.7-3.2-2.4-2-0.8-4.9-0.8-1.2 0-2.5 0.1-1.3 0.1-2.5 0.2-1.1 0.1-2 0.3-0.9 0.1-1.3 0.2v35zm42.7-20.7q0-5.5 1.6-9.5 1.6-4.2 4.2-6.9 2.6-2.7 6-4 3.5-1.4 7.1-1.4 8.3 0 12.8 5.3 4.4 5.1 4.4 15.8 0 0.5 0 1.3 0 0.7 0 1.3h-28.4q0.5 6.5 3.7 9.8 3.3 3.4 10.2 3.4 3.9 0 6.6-0.6 2.7-0.8 4-1.4l1.1 6.2q-1.4 0.7-4.8 1.5-3.4 0.8-7.7 0.8-5.4 0-9.4-1.6-3.9-1.6-6.4-4.5-2.6-2.9-3.8-6.8-1.2-4-1.2-8.7zm7.9-4h20.5q0.1-5.1-2.5-8.2-2.6-3.3-7.1-3.3-2.6 0-4.6 1-1.9 1-3.2 2.6-1.4 1.6-2.2 3.6-0.7 2.1-0.9 4.3zm65.4 22.3v-1.8q-1 0.7-3.8 1.7-2.7 1-6.4 1-3.7 0-7.1-1.2-3.2-1.2-5.7-3.7-2.5-2.6-3.9-6.3-1.4-3.7-1.4-8.9 0-4.6 1.3-8.3 1.4-3.8 3.9-6.5 2.7-2.8 6.4-4.3 3.7-1.6 8.4-1.6 5.2 0 9.1 0.8 3.9 0.7 6.5 1.3v37q0 9.6-5 13.9-4.9 4.3-14.9 4.3-3.9 0-7.4-0.7-3.5-0.6-6-1.5l1.3-6.4q2.3 0.8 5.4 1.5 3.3 0.7 6.8 0.7 6.6 0 9.5-2.6 3-2.7 3-8.4zm-0.1-8.3v-24.2q-1.1-0.3-3.1-0.6-1.8-0.3-5-0.3-6 0-9.2 3.9-3.2 3.9-3.2 10.4 0 3.5 0.9 6.1 0.9 2.5 2.4 4.2 1.6 1.7 3.6 2.5 2.1 0.8 4.3 0.8 2.9 0 5.4-0.8 2.4-0.9 3.9-2zm56.7-10q0 4.9-1.5 8.9-1.4 4-4 6.8-2.6 2.9-6.2 4.5-3.6 1.5-7.8 1.5-4.2 0-7.8-1.5-3.6-1.6-6.2-4.5-2.6-2.8-4-6.8-1.4-4-1.4-8.9 0-4.9 1.4-8.9 1.4-4.1 4-6.9 2.6-2.9 6.2-4.4 3.6-1.6 7.8-1.6 4.2 0 7.8 1.6 3.6 1.5 6.2 4.4 2.6 2.8 4 6.9 1.5 4 1.5 8.9zm-7.8 0q0-7.1-3.2-11.1-3.1-4.2-8.5-4.2-5.4 0-8.6 4.2-3.1 4-3.1 11.1 0 7 3.1 11.1 3.2 4.1 8.6 4.1 5.4 0 8.5-4.1 3.2-4.1 3.2-11.1zm-6.8-41.2l4.8 4.7-11.3 11-3.7-3.4zm43 62.8q-5 0-8.9-1.6-3.7-1.6-6.3-4.5-2.6-2.8-3.9-6.7-1.2-4-1.2-8.8 0-4.8 1.3-8.8 1.5-3.9 4-6.8 2.6-3 6.2-4.6 3.8-1.6 8.3-1.6 2.8 0 5.6 0.4 2.8 0.5 5.3 1.6l-1.6 6.3q-1.7-0.8-4-1.3-2.1-0.5-4.6-0.5-6.2 0-9.5 3.9-3.3 3.9-3.3 11.4 0 3.4 0.7 6.1 0.8 2.8 2.4 4.8 1.7 2 4.2 3.1 2.6 1.1 6.2 1.1 3 0 5.4-0.6 2.4-0.5 3.7-1.2l1.1 6.2q-0.7 0.4-1.9 0.8-1.2 0.3-2.7 0.7-1.5 0.2-3.2 0.4-1.7 0.2-3.3 0.2zm26.4-42.4v41.4h-7.4v-41.4zm-3.8-7.5q-2 0-3.4-1.3-1.4-1.3-1.4-3.5 0-2.3 1.4-3.6 1.4-1.3 3.4-1.3 2 0 3.4 1.3 1.4 1.3 1.4 3.6 0 2.2-1.4 3.5-1.4 1.3-3.4 1.3zm52.9 28.2q0 5-1.4 9-1.4 3.9-4.1 6.8-2.5 2.9-6.1 4.5-3.6 1.5-7.8 1.5-4.2 0-7.8-1.5-3.6-1.6-6.2-4.5-2.6-2.9-4-6.8-1.4-4-1.4-9 0-4.8 1.4-8.8 1.4-4.1 4-7 2.6-2.8 6.2-4.3 3.6-1.6 7.8-1.6 4.2 0 7.8 1.6 3.6 1.5 6.1 4.3 2.7 2.9 4.1 7 1.4 4 1.4 8.8zm-7.7 0q0-7-3.2-11-3.1-4.2-8.5-4.2-5.4 0-8.6 4.2-3.1 4-3.1 11 0 7 3.1 11.2 3.2 4 8.6 4 5.4 0 8.5-4 3.2-4.2 3.2-11.2zm27.8 15.4q4.5 0 6.7-1.2 2.2-1.2 2.2-3.8 0-2.7-2.1-4.3-2.2-1.6-7.1-3.6-2.4-1-4.6-1.9-2.2-1.1-3.8-2.4-1.6-1.4-2.5-3.3-1-1.9-1-4.7 0-5.5 4.1-8.7 4-3.2 11.1-3.2 1.7 0 3.5 0.2 1.7 0.2 3.2 0.5 1.5 0.2 2.7 0.5 1.2 0.4 1.8 0.6l-1.4 6.4q-1.2-0.7-3.7-1.3-2.6-0.7-6.1-0.7-3.2 0-5.5 1.3-2.3 1.2-2.3 3.8 0 1.3 0.5 2.4 0.6 1 1.6 1.9 1.1 0.8 2.7 1.5 1.6 0.7 3.8 1.5 3 1.1 5.3 2.3 2.3 1 3.9 2.4 1.7 1.5 2.5 3.5 0.9 2 0.9 5 0 5.7-4.3 8.7-4.2 2.9-12.1 2.9-5.5 0-8.6-0.9-3.1-0.9-4.2-1.4l1.3-6.4q1.3 0.5 4.1 1.5 2.8 0.9 7.4 0.9z"/><path fill-rule="evenodd" class="a" d="m706.3 606.8c-161.1 0-291.3-130.3-291.3-291.4 0-161.2 130.2-291.4 291.3-291.4 161.1 0 291.3 130.2 291.3 291.4 0 161.1-130.2 291.4-291.3 291.4z"/><path fill-rule="evenodd" class="c" d="m700.6 528.4c2.4 0.8 7.2 1.5 13.3 0 26.1-17.6 46-50.8 52.8-48.4 4.2-3.8 30 38-28.3 80.5-7.4 4-7.4 7.1-27.1-6.3-1.9-1.8-5.8-4.9-11.3 0-3 2.7-2.7 7-10.7 12.6-2.4 1.1-4.3 1.7-8.8 0.7-4.5-1-33.8-11.2-44.7-57.3-1.6-9.6-4.2-24.2 7.6-27.1 8.4-3.4 24.3 26.4 57.2 45.3zm2.8-367.9c6.9 35.2 3.1 105.1 3.1 112.7 0 7.5 3.8 27 3.8 27l4.4-27c0 0 3.4-36.5 28.3-64.9 41.8-30.6 58.5 6.9 60.4 13.2 7.1 20.4 6.5 43 2.5 56.1-6.2 12.1-6.9 12.9-17.6 10-19.9 38.8-32.3 49.7-34 51.6 24.6 25.8 44.9 58.6 46.6 70.5 1.7 12 2.3 15.8-1.3 25.2-3.3 13-70.2 78.5-83 81.2-7 3-14.9 3.6-22.7-0.6-7.7-4.2-75.5-54.6-87.5-80.6-2.1-8.4-4.8-13.2 0.7-24.5 5.2-16.8 35.8-65.5 35.8-65.5 0 0-14.6-125.1-6.2-178.7 13.8-89.4 29.3-104.6 35.2-103.3 12.6 5 30.6 78.3 31.5 97.6zm44.2 52.7c0.5 6.2 40.6 72 46.3 68.5 5.7-3.5 10.9-34.1 6.6-52.8-10.5-31.6-39.8-30.4-52.9-15.7zm-76-140.1c0 0-24.8 40-25.1 105.1 13.8-2.2 25.8-7.9 46.5-23.9 3.5-33.1-21.4-81.2-21.4-81.2z"/></svg>